<?xml version="1.0" encoding="UTF-8"?>
<svg id="Layer_2" data-name="Layer 2" xmlns="http://www.w3.org/2000/svg" viewBox="0 0 525.31 272.36">
  <defs>
    <style>
      .cls-1, .cls-2 {
        stroke-width: 0px;
      }

      .cls-2 {
        fill: #ff0013;
      }
    </style>
  </defs>
  <g id="Layer_3" data-name="Layer 3">
    <g>
      <g>
        <path class="cls-1" d="m335.61,220.98c-1.25-22.58-3-65.39-3.35-87.07-.26-16.28,4.53-31.69,18.18-41.49,18.44-13.24,38.97-18.26,60.65-8.7,15.78,6.96,24.05,20.3,26.63,37.41,1.34,8.9.39,17.65-2.68,26.02-5.3,14.44-16.91,21.28-30.72,24.31-7.45,1.63-15.3,1.59-22.98,1.79-4.55.12-8.08-2.68-8.89-6.24-.88-3.84,1.44-6.35,4.02-8.66,5.49-4.92,12.24-6.22,19.18-7.03,2.77-.32,5.61-.46,8.28-1.22,11.08-3.14,14.72-10.18,14-23.64-.85-15.82-11.41-25.91-27.01-26.41-5.9-.19-12.02.5-17.72,2.01-13.64,3.62-21.15,13.52-22.54,27.38-.95,9.5-.16,19.21.25,28.82.5,11.8,1.45,23.58,2.04,35.38.05.97.95,21.17.62,21.42-4.74,1.22-12.13,4.73-17.93,5.93Z"/>
        <path class="cls-1" d="m180.45,206.32c1.47-6.75,2.95-13.02,4.2-19.34,3.29-16.72,6.03-33.56,9.83-50.16,3.49-15.24,9.22-29.6,18.6-42.34,15.2-20.64,46.38-24.19,63.28-6.73,7.73,7.98,10.48,18.44,12.33,29.02,4.01,22.98,2.75,45.97-.45,68.95-.96,6.79-3.45,20.32.66,42.89-5.68.56-12.66,1.56-18.75,2.16-1.03-6.44-1.71-34.38-1.25-40.43,1.29-16.78,2.96-33.53,4.42-50.29.94-10.78-.52-21.19-5.8-30.68-8.49-15.26-28.82-16.92-40.66-3.22-8.7,10.06-12.35,22.5-15.02,35.37-4.39,21.17-10,43.24-14.66,64.35-.23,1.06-.8,1.67-1.7,1.64-4.88-.15-9.75-.72-15.03-1.18Z"/>
        <path class="cls-1" d="m141.01,226.76c-7.08-.18-14.16-.36-21.25-.54-32.49-81.44-44.62-112.65-45.59-116.24-.01-.04-.03-.2-.11-.39-4.3-10.53-7.33-12.14-18.5-10.29-3.26.54-6.72,1.17-9.88.58-2.38-.44-5.34-2.29-6.37-4.38-1.38-2.77-.2-6.02,2.33-8.39,4.61-4.3,10.38-5.26,16.2-5.94,11.43-1.34,20.3,3.07,27.41,12.27,8.36,10.81,13.5,23.18,18.27,35.84,8.14,21.58,16.56,43.06,24.71,64.63,5.43,14.39,10,25.91,12.78,32.83Z"/>
        <path class="cls-1" d="m353.54,215.05c.16,8.34-.66,16.18-3.79,23.67-5.39,12.91-13.96,23-25.94,29.89-11.23,6.46-31.83,5.08-41.61-8.25-6.27-8.55-12.42-23.77-12.46-34.7,5.84-.49,11.74-.98,17.94-1.5.91,3.22,1.66,6.34,2.66,9.38,6.02,18.28,19.27,22.05,33.62,9.44,6.2-5.45,10.82-11.99,11.45-20.71.19-2.65,1.26-3.96,4.07-4.35,4.59-.63,9.1-1.83,14.05-2.88Z"/>
        <path class="cls-1" d="m181.42,201.9c6-.89,10.98-1.79,16.98-2.68-7.74,43.28-23.12,60.31-31.38,66.08-4.52,3.16-9,3.59-9,3.59-5.13.54-10.36-1.26-14.84-5.08-10.42-8.88-16.51-20.67-21.62-33.11-2.4-5.84-4.56-11.78-7.14-18.48,5.83,1.16,10.92,2.55,16.11,3.11,5.04.54,7.27,3,9.03,7.8,2.3,6.25,5.56,12.29,9.26,17.82,5.64,8.43,12.42,8.23,18.12-.05,2.69-3.9,4.31-7.22,4.73-8.44,4.55-12.93,8.88-27.59,9.76-30.56Z"/>
      </g>
      <path class="cls-2" d="m355.21,28.19c10.07,1.96,19.64,3.91,29.25,5.65,5.41.98,10.71.02,15.32-2.9,6.86-4.35,13.35-2.85,20.28.39-1.82,4.31-3.6,8.54-5.42,12.87,15,3.84,29.47,2.75,44.16-1.16,12.91-3.43,26.15-4.15,39.21.37,4.6,1.59,14.38,5.1,20.99,14.44,13.66,19.31,1.39,46.29-1.55,52.23-4.2,8.46-9.21,13.93-11.65,16.52-35.02,37.27-75.22,57.78-75.22,57.78-38.69,19.73-72.82,25.39-88.5,28.9-12.63,2.82-25.62,4.2-38.5,5.69-15.42,1.78-30.89,3.39-46.38,4.28-15.64.9-31.35,1.53-46.99,1.05-38.95-1.19-77.08-8.47-114.8-17.79-31.19-7.71-57.83-23.67-79.4-47.65C6.18,147.96-.74,135.47.06,120.04c.15-2.86,1.07-5.68,1.7-8.88,4.51,7.27,8.11,14.08,12.64,20.19,12,16.19,27.79,28.1,44.74,38.59,27.25,16.86,56.94,27.01,88.5,31.36,18.63,2.57,37.4,4.38,56.17,5.58,16.28,1.04,32.68,1.58,48.96.83,17.05-.79,34.07-3.06,51.03-5.25,24.31-3.14,48.18-8.56,71.72-15.42,21.69-6.32,54.31-17.41,83.61-40.41,17.09-13.42,28.67-27.64,30.45-29.85,6.45-8.01,11.2-15.32,14.52-20.89,0,0,5.3-13.05,2.75-26.06-.74-3.78-1.92-6.22-3.36-8.16,0,0-2.38-3.76-6.88-5.58-9.95-4.05-20.11-3.4-30.1-.74-14.21,3.77-28.55,5.1-43.25,5.28-47.4.57-91.78-11.17-134.13-31.73-4.02-1.95-7.75-4.57-11.35-7.24-1.15-.85-2.28-3.15-1.9-4.28.42-1.26,2.56-2.73,3.95-2.74,5.8-.04,11.67-.03,17.38.85,6.25.96,12.37,2.83,18.51,4.44,2.96.78,5.37.35,7.62-1.88,4.53-4.5,9.16-8.89,13.81-13.26,6.42-6.02,16.38-6.41,23.13-.78.69.57.79,2.36.55,3.45-.75,3.5-1.78,6.95-2.72,10.41-.91,3.32-1.85,6.62-2.89,10.34Z"/>
      <path class="cls-2" d="m251.14,62.96c-10.72,0-19.07-8.25-19.12-18.93-.05-10.79,8.6-19.48,19.26-19.34,10.47.14,19.1,8.87,19.05,19.27-.05,10.51-8.61,18.99-19.19,19Z"/>
    </g>
  </g>
</svg>