<?xml version="1.0" encoding="UTF-8"?>
<svg id="Layer_2" data-name="Layer 2" xmlns="http://www.w3.org/2000/svg" viewBox="0 0 494.33 64.33">
  <defs>
    <style>
      .cls-1 {
        stroke-width: 0px;
      }
    </style>
  </defs>
  <g id="Layer_3" data-name="Layer 3">
    <g>
      <path class="cls-1" d="m258.94,23.95c-1.27-2.25-2.7-4.36-3.72-6.66-2.84-6.43-.4-13.59,6.19-15.5,4.78-1.39,10.28-1.73,15.18-.88,8.93,1.55,11.53,11.25,5.14,17.9-2.37,2.46-5.39,4.27-9.2,7.2,3.23,3.22,6.38,6.35,9.52,9.49.48-.24.96-.48,1.45-.72.49-2.45,1.3-4.89,1.39-7.35.16-4.38,3.27-2.9,5.5-3.17,2.62-.32,3.79.98,3.29,3.55-.8,4.18-1.76,8.33-2.85,13.38.79.51,2.27,2.08,4.03,2.51,3.72.91,2.89,3.82,2.24,5.73-.4,1.16-2.96,1.62-4.6,2.25-.38.15-.99-.29-1.49-.48-7.24-2.84-7.23-2.81-14.87-.5-5.62,1.69-11.25,1.78-16.86-.11-5.07-1.71-8.47-5.02-9.44-10.47-.97-5.44,1.09-9.77,5.22-13.19,1.23-1.02,2.53-1.95,3.87-2.98Zm17.44,17.71c-4.19-4.05-8.1-7.83-12-11.6-4.54,3.02-5.86,7.24-3.47,10.87,2.71,4.11,9.31,4.53,15.47.73Zm-8.72-21.78c2.13-1.51,4.14-2.37,5.27-3.89,1.15-1.55,2.37-4.11,1.83-5.6-.52-1.44-3.15-2.76-4.97-2.94-4.86-.49-7.11,3.08-5.06,7.59.71,1.56,1.77,2.96,2.92,4.84Z"/>
      <path class="cls-1" d="m426.39,47.66c-3.87-5.05-3.78-7.38.4-13.19-3.08-4.63-3.58-9.55-.69-14.39,2.98-4.98,7.92-5.93,13.21-5.7,3.85.17,7.69.44,11.53.54,2.32.06,4.61-.28,4.73,3.22.11,3.19-1.23,4.49-4.68,3.86,1.6,5.78,1.05,10.84-3.84,14.27-4.42,3.09-9.41,3.15-14.49,1.52-1.67,3.12-.41,4.57,2.38,4.87,2.9.31,5.84.23,8.76.39,6.44.35,10.57,3.38,11.26,8.22.8,5.58-2.34,10.67-8.72,12.15-4.67,1.08-9.69.99-14.53.8-3.94-.16-7.76-1.69-9.19-5.94-1.41-4.21.51-7.61,3.85-10.61Zm11.93,1.91c-1,0-1.66.03-2.33,0-3.03-.17-4.39,1.8-4.81,4.35-.47,2.83,1.73,3.9,3.91,4.09,2.45.21,5.16.3,7.38-.56,1.4-.54,2.68-2.83,2.9-4.48.11-.86-2.06-2.33-3.44-3-1.12-.54-2.6-.31-3.6-.39Zm5.25-23.02c.07-3.4-2.02-5.57-5.42-5.64-3.44-.07-5.48,1.89-5.63,5.39-.15,3.54,1.75,5.74,5.11,5.93,3.4.19,5.87-2.17,5.94-5.68Z"/>
      <path class="cls-1" d="m34.13,39.61c2.41,5.32,1.31,8.45-3.54,10.5C15.74,56.39,1.79,48.22.21,31.92c-.46-4.73-.17-9.79,1-14.38C4.52,4.59,17.43-1.71,29.81,3.06c5.45,2.1,6.57,4.9,4.12,11.16-1.39-.78-2.72-1.55-4.07-2.29-8.62-4.75-17.01-1.11-18.82,8.63-.77,4.15-.73,8.68.02,12.83,1.54,8.52,8.8,12.19,17.02,9.09,2.08-.78,4.03-1.91,6.04-2.88Z"/>
      <path class="cls-1" d="m354.61,39.57c2.34,5.77,1.19,8.64-4.07,10.7-14.85,5.82-28.2-2.09-29.89-18.14-.51-4.86-.19-10.08,1.04-14.79,3.34-12.79,16.15-18.98,28.42-14.32,5.53,2.1,6.58,4.61,4.29,11.17-1.52-.84-2.96-1.66-4.42-2.44-8.37-4.44-16.52-.95-18.4,8.42-.85,4.26-.84,8.95-.09,13.24,1.48,8.51,8.85,12.19,17.07,9.05,2.08-.79,4.03-1.92,6.05-2.9Z"/>
      <path class="cls-1" d="m57,51.94c-11.29.02-17.34-6.42-17.35-18.47,0-12.13,6.81-19.39,18.21-19.4,11.27-.01,17.31,6.45,17.31,18.53,0,12.23-6.66,19.32-18.17,19.34Zm8.91-18.86c-.56-2.47-.78-5.11-1.77-7.39-2-4.62-8.67-5.53-12.13-1.89-3.54,3.73-3.98,14.63-.17,18.12,1.69,1.55,4.8,2.34,7.16,2.14,4.42-.37,6.52-4.37,6.91-10.99Z"/>
      <path class="cls-1" d="m494.33,32.67c-.03,14.84-11.34,23.08-25.17,18.16-2.17-.77-4.51-2.12-5.9-3.91-5.61-7.18-5.42-15.31-2.3-23.36,2.51-6.49,9.07-9.82,17.05-9.47,10.98.49,16.34,6.59,16.32,18.58Zm-9.59.2c-.03-7.97-2.86-11.59-8.73-11.15-4.86.36-7.35,4.08-7.4,11.04-.05,7.72,2.66,11.69,7.99,11.68,5.4,0,8.17-3.94,8.14-11.57Z"/>
      <path class="cls-1" d="m176.71,35.51c.41,9.03,2.42,9.7,20.27,7.33,1.84,5.06,1.2,7.08-3.61,7.84-4.77.75-9.77,1.01-14.55.48-6-.67-9.99-4.73-10.92-10.75-.69-4.44-.93-9.25,0-13.59,2.35-11,14.33-16.14,24.19-10.89,5.35,2.85,8.97,11.08,7.04,17.07-.38,1.18-2.74,2.33-4.24,2.4-5.95.27-11.91.11-18.18.11Zm.22-6.45h13.33c-.21-5.84-2.26-8.25-6.74-8.16-4.34.08-6.62,2.87-6.58,8.16Z"/>
      <path class="cls-1" d="m380.84,28.82c.44-5.97-1.74-8.29-7.49-7.45-2.33.34-4.53,1.5-6.84,2.02-1.32.3-2.75.08-4.14.09.3-2.01-.1-4.71,1.03-5.9,4.41-4.64,18.89-5,23.17-.28,2.11,2.32,3.3,6.15,3.56,9.41.53,6.84.18,13.75.16,20.63,0,1.67.51,3.85-2.21,3.81-2.31-.04-5.36,1.27-5.88-3.11-4.59,3.52-9.46,5-14.94,3.16-4.46-1.49-6.99-4.85-7.2-9.61-.2-4.57,1.76-8.49,6.11-9.86,4.62-1.46,9.54-1.94,14.67-2.91Zm-.09,6.68c-2.68.2-5.23.13-7.66.63-2.9.6-4.32,2.7-3.62,5.73.73,3.19,3.22,3.75,5.93,3.27,4.41-.78,6.1-3.67,5.36-9.63Z"/>
      <path class="cls-1" d="m105.72,47.77c-3.91,1.43-7.59,3.57-11.45,3.99-6.22.69-11.04-3.45-11.47-9.78-.56-8.2-.44-16.45-.32-24.68.06-3.59,3.19-2.4,5.21-2.54,2.07-.14,3.99.11,3.9,3.15-.14,5.12-.04,10.26-.03,15.39,0,1.21-.03,2.44.08,3.64.4,4.42,2.29,6.76,5.4,6.79,3.39.03,7.51-3.93,7.56-7.46.07-5.8.2-11.61-.04-17.41-.15-3.72,1.76-4.25,4.67-4.18,2.74.07,4.81.17,4.69,4.1-.28,9.3-.11,18.62-.08,27.94,0,2.37.33,4.65-3.24,4.58-2.96-.06-5.55-.09-4.89-3.52Z"/>
      <path class="cls-1" d="m131.23,20.14c3.72-4.48,7.22-7.84,11.64-5.2,1.66.99,1.37,5.35,1.86,7.63-3.58.83-6.74.71-8.56,2.23-1.86,1.54-3.11,4.63-3.38,7.18-.52,4.8-.4,9.73-.07,14.57.27,3.95-1.41,4.72-4.86,4.8-3.76.08-4.7-1.35-4.61-4.98.24-8.91.1-17.83.07-26.74,0-2.47-.42-4.93,3.35-4.97,3.16-.03,5.27.62,4.58,5.49Z"/>
      <path class="cls-1" d="m215.04,20.2c3.74-4.5,7.23-7.9,11.63-5.27,1.68,1,1.42,5.34,2.05,8.17-3.28.29-5.9-.14-7.78.86-2.83,1.51-4.71,4.14-4.56,7.9.2,5.25-.11,10.53.1,15.78.15,3.83-2.22,3.62-4.69,3.61-2.43-.01-4.75.3-4.67-3.58.2-9.44.09-18.89.05-28.33-.01-2.4-.22-4.63,3.24-4.66,3.07-.03,5.45.37,4.64,5.53Z"/>
      <path class="cls-1" d="m407.69,19.55c3.62-3.91,7.15-7.24,11.54-4.59,1.65,1,1.35,5.33,1.69,6.94-4.03,1.6-7.23,2.25-9.61,4.04-1.47,1.11-2.21,3.92-2.34,6.03-.33,5.12-.33,10.28-.03,15.4.24,4.06-2.17,3.87-4.81,3.9-2.6.02-4.62-.06-4.53-3.78.22-9.33.08-18.66.07-27.99,0-2.31-.42-4.81,3.12-4.78,2.87.02,5.87-.26,4.91,4.84Z"/>
      <path class="cls-1" d="m159.52,32.96c0,5-.13,10,.04,15,.13,3.73-2.33,3.31-4.55,3.26-2.12-.04-4.75.7-4.72-3.09.08-10,.09-20,0-29.99-.04-3.92,2.65-3.33,4.95-3.41,2.42-.08,4.48.19,4.33,3.64-.21,4.85-.05,9.73-.05,14.59Z"/>
      <path class="cls-1" d="m160.19,4.93c.27,3.73-1.77,4.93-5.14,4.94-3.21.01-5.49-.72-5.43-4.65.06-3.9,1.31-5.16,5.37-5.21,3.32-.04,5.46,1.08,5.2,4.92Z"/>
    </g>
  </g>
</svg>